<svg width="12" height="17" viewBox="0 0 12 17" fill="none" xmlns="http://www.w3.org/2000/svg">
<path d="M0.0932617 14.9333C0.0932617 10.8089 0.0932617 6.68444 0.0932617 2.56C0.303623 1.76356 0.729603 1.45067 1.33965 1.49333C1.78141 1.52178 2.22317 1.50044 2.6807 1.50044C2.6807 1.20889 2.69122 0.96 2.6807 0.711111C2.66492 0.398222 2.73855 0.163556 2.93313 0C3.0015 0 3.07513 0 3.14349 0C3.35911 0.142222 3.43274 0.376889 3.4117 0.696889C3.39593 0.952889 3.40645 1.20889 3.40645 1.47911C4.16374 1.47911 4.89475 1.47911 5.65205 1.47911C5.65205 1.19467 5.66257 0.924444 5.64679 0.654222C5.63101 0.369778 5.70464 0.156444 5.87293 0C5.96233 0 6.04647 0 6.13588 0C6.30942 0.156444 6.37779 0.376889 6.36201 0.661333C6.34624 0.931555 6.35676 1.19467 6.35676 1.47911C7.11931 1.47911 7.84506 1.47911 8.60236 1.47911C8.60236 1.19467 8.61814 0.924444 8.5971 0.654222C8.57606 0.341333 8.66547 0.135111 8.86531 0C8.93368 0 9.0073 0 9.07567 0C9.27551 0.163556 9.34388 0.405333 9.3281 0.718222C9.31758 0.974222 9.3281 1.22311 9.3281 1.50044C9.80667 1.50044 10.2432 1.50044 10.6797 1.50044C11.4054 1.50044 11.6526 1.728 11.9155 2.63822C11.9155 6.74133 11.9155 10.8373 11.9155 14.9404C11.7683 15.488 11.5053 15.8649 11.0741 16.0071C7.69255 16.0071 4.30574 16.0071 0.924187 16.0071C0.503465 15.8578 0.240514 15.4809 0.0932617 14.9333ZM3.40645 2.51022C3.40645 2.83733 3.40645 3.12178 3.40645 3.40622C3.40645 3.79022 3.29075 3.97511 3.06461 3.98933C2.82795 3.99644 2.69122 3.79022 2.6807 3.40622C2.67544 3.11467 2.6807 2.82311 2.6807 2.496C2.19161 2.496 1.72882 2.496 1.26602 2.496C0.882115 2.48889 0.829525 2.56 0.829525 3.07911C0.829525 6.85511 0.829525 10.6382 0.829525 14.4142C0.829525 14.9404 0.876856 15.0044 1.27128 15.0044C4.43195 15.0044 7.59789 15.0044 10.7586 15.0044C11.1425 15.0044 11.1951 14.9333 11.1951 14.4071C11.1951 10.6311 11.1951 6.848 11.1951 3.072C11.1951 2.98667 11.2161 2.88711 11.1898 2.83022C11.1267 2.70222 11.0425 2.51022 10.9584 2.51022C10.4272 2.48178 9.89608 2.496 9.33862 2.496C9.33862 2.83733 9.34388 3.14311 9.33862 3.44889C9.3281 3.79733 9.17559 3.99644 8.94945 3.98933C8.72857 3.97511 8.61814 3.79733 8.61288 3.43467C8.60762 3.12889 8.61288 2.82311 8.61288 2.51733C7.85032 2.51733 7.11931 2.51733 6.36727 2.51733C6.36727 2.83733 6.37253 3.12889 6.36727 3.42044C6.36202 3.80444 6.24106 3.98222 6.00966 3.98222C5.77826 3.98222 5.66257 3.79733 5.65731 3.41333C5.65205 3.10756 5.65731 2.80889 5.65731 2.51022C4.88423 2.51022 4.16374 2.51022 3.40645 2.51022Z" fill="#777777"/>
<path d="M2.69648 12.4729C2.69648 11.9893 2.69648 11.5271 2.69648 11.0364C3.17505 11.0364 3.6431 11.0364 4.12693 11.0364C4.12693 11.5058 4.12693 11.9751 4.12693 12.4729C3.66414 12.4729 3.19608 12.4729 2.69648 12.4729Z" fill="#777777"/>
<path d="M7.8924 11.0364C8.36571 11.0364 8.83376 11.0364 9.32285 11.0364C9.32285 11.5129 9.32285 11.9822 9.32285 12.4729C8.84954 12.4729 8.38148 12.4729 7.8924 12.4729C7.8924 12.0107 7.8924 11.5484 7.8924 11.0364Z" fill="#777777"/>
<path d="M6.71963 11.0364C6.71963 11.5271 6.71963 11.9964 6.71963 12.48C6.24632 12.48 5.78878 12.48 5.30495 12.48C5.30495 12.0035 5.30495 11.5271 5.30495 11.0364C5.77301 11.0364 6.23054 11.0364 6.71963 11.0364Z" fill="#777777"/>
<path d="M4.13219 7.45954C3.6431 7.45954 3.18031 7.45954 2.69648 7.45954C2.69648 6.99021 2.69648 6.5351 2.69648 6.04443C3.17505 6.04443 3.64836 6.04443 4.13219 6.04443C4.13219 6.51376 4.13219 6.96887 4.13219 7.45954Z" fill="#777777"/>
<path d="M9.30707 7.45958C8.84427 7.45958 8.37622 7.45958 7.88713 7.45958C7.88713 6.99024 7.88713 6.52091 7.88713 6.03735C8.35518 6.03735 8.81272 6.03735 9.30707 6.03735C9.30707 6.49957 9.30707 6.96891 9.30707 7.45958Z" fill="#777777"/>
<path d="M4.12693 9.96974C3.6431 9.96974 3.18031 9.96974 2.69648 9.96974C2.69648 9.49329 2.69648 9.02396 2.69648 8.5404C3.16979 8.5404 3.63784 8.5404 4.12693 8.5404C4.12693 9.00974 4.12693 9.47196 4.12693 9.96974Z" fill="#777777"/>
<path d="M7.88713 9.96263C7.88713 9.46485 7.88713 9.00974 7.88713 8.5404C8.37096 8.5404 8.83376 8.5404 9.32284 8.5404C9.32284 9.01685 9.32284 9.47907 9.32284 9.96263C8.83901 9.96263 8.37096 9.96263 7.88713 9.96263Z" fill="#777777"/>
<path d="M5.29969 7.45954C5.29969 6.97599 5.29969 6.52088 5.29969 6.04443C5.773 6.04443 6.23054 6.04443 6.71437 6.04443C6.71437 6.50665 6.71437 6.97599 6.71437 7.45954C6.25157 7.45954 5.78878 7.45954 5.29969 7.45954Z" fill="#777777"/>
<path d="M5.29969 8.5404C5.78352 8.5404 6.24106 8.5404 6.71963 8.5404C6.71963 9.01685 6.71963 9.47196 6.71963 9.95552C6.24632 9.95552 5.78352 9.95552 5.29969 9.95552C5.29969 9.48618 5.29969 9.03107 5.29969 8.5404Z" fill="#777777"/>
</svg>
