<svg width="11" height="16" viewBox="0 0 11 16" fill="none" xmlns="http://www.w3.org/2000/svg">
<path d="M5.70567 12.252C4.99325 12.9666 4.29821 13.6581 3.58579 14.3727C3.08189 14.8798 2.57798 15.387 2.07407 15.8711C1.84819 16.1016 1.55279 15.9402 1.51804 15.5714C1.50067 15.3639 1.57017 15.2256 1.6918 15.1104C2.38684 14.4188 3.08189 13.7273 3.77693 13.0357C4.2287 12.5977 4.6631 12.1367 5.13226 11.6987C5.09751 11.6757 5.08013 11.6296 5.06275 11.6065C4.19395 10.7306 3.32515 9.87767 2.45635 9.00172C2.40422 8.95561 2.33472 8.90951 2.28259 8.88646C1.88294 8.7251 1.46591 8.58679 1.06626 8.40238C0.892504 8.33322 0.805624 8.12576 0.840376 7.89525C0.875128 7.59558 1.08364 7.45727 1.30953 7.54947C1.55279 7.66473 1.81343 7.75694 2.07407 7.87219C2.09145 7.87219 2.10883 7.87219 2.14358 7.89525C2.14358 7.77999 2.14358 7.66473 2.14358 7.54947C2.14358 5.22127 2.14358 2.87002 2.14358 0.541824C2.14358 0.311309 2.19571 0.126897 2.36947 0.0346913C2.57798 -0.0805661 2.82124 0.103846 2.83862 0.403515C2.856 0.564875 2.83862 0.726236 2.83862 0.887596C2.83862 1.00285 2.87337 1.04896 2.94288 1.09506C3.3599 1.30252 3.77693 1.41778 4.21133 1.46388C5.01063 1.62524 5.86205 1.62524 6.71348 1.53304C7.25214 1.48693 7.79079 1.39473 8.32945 1.18727C8.43371 1.14116 8.46846 1.09506 8.46846 0.933699C8.45108 0.79539 8.46846 0.63403 8.46846 0.495721C8.46846 0.219103 8.62484 0.0116398 8.81598 0.0116398C9.00711 0.0116398 9.14612 0.219103 9.14612 0.495721C9.14612 1.11811 9.14612 1.7405 9.14612 2.36289C9.14612 4.13785 9.14612 5.91282 9.14612 7.68778C9.14612 7.73388 9.14612 7.77999 9.1635 7.84914C9.44152 7.71083 9.68478 7.59558 9.94542 7.45727C10.1539 7.34201 10.3624 7.48032 10.432 7.75694C10.4841 7.9644 10.3972 8.19491 10.2234 8.28712C9.92805 8.44848 9.61528 8.58679 9.30251 8.7251C9.21563 8.7712 9.14612 8.8173 9.07662 8.88646C8.17307 9.78547 7.26951 10.6845 6.38333 11.5835C6.34858 11.6065 6.31383 11.6526 6.27908 11.6987C6.31383 11.7448 6.3312 11.7679 6.36596 11.7909C7.44327 12.8744 8.53796 13.9578 9.61528 15.0412C9.65003 15.0873 9.70216 15.1334 9.73691 15.1565C9.91067 15.3409 9.94542 15.6175 9.82379 15.825C9.70216 16.0324 9.49364 16.0555 9.33726 15.8941C8.90286 15.4561 8.46846 15.0412 8.05143 14.6032C7.28689 13.8425 6.53972 13.0818 5.77517 12.3442C5.74042 12.2981 5.72304 12.275 5.70567 12.252ZM2.82124 4.94466C2.80387 4.99076 2.80387 4.99076 2.80387 5.01381C2.80387 6.00502 2.80387 7.01929 2.80387 8.0105C2.80387 8.10271 2.83862 8.12576 2.90812 8.12576C3.42941 8.21797 3.93331 8.31017 4.45459 8.37933C5.58403 8.49458 6.71348 8.44848 7.82554 8.21797C8.03406 8.17186 8.25994 8.12576 8.46846 8.07966C8.46846 6.97319 8.46846 5.88977 8.46846 4.7833C6.57447 5.79756 4.69786 5.70535 2.82124 4.94466ZM7.61703 9.20918C7.61703 9.18613 7.61703 9.18613 7.59966 9.16308C6.34858 9.37054 5.08013 9.37054 3.81168 9.20918C3.82905 9.23223 3.84643 9.25528 3.84643 9.27833C4.43722 9.87767 5.04538 10.477 5.63616 11.0763C5.68829 11.1455 5.72304 11.0994 5.77517 11.0533C6.08794 10.7306 6.41809 10.4079 6.73085 10.0851C7.02625 9.80852 7.32164 9.50885 7.61703 9.20918Z" fill="#777777"/>
</svg>
